<?xml version="1.0" encoding="iso-8859-1"?>
<!-- Uploaded to: SVG Repo, www.svgrepo.com, Generator: SVG Repo Mixer Tools -->
<svg version="1.1" id="Layer_1" xmlns="http://www.w3.org/2000/svg" xmlns:xlink="http://www.w3.org/1999/xlink" 
	 viewBox="0 0 512.001 512.001" xml:space="preserve">
<g>
	<polyline style="fill:#5A5A28;" points="384.567,455.753 384.567,487.894 497.062,487.894 480.991,455.753 497.062,423.611 
		400.637,423.611 	"/>
	<polyline style="fill:#5A5A28;" points="127.435,455.753 127.435,487.894 14.939,487.894 31.011,455.753 14.939,423.611 
		111.364,423.611 	"/>
</g>
<rect x="111.365" y="391.47" style="fill:#7B7B53;" width="289.271" height="64.282"/>
<path id="SVGCleanerId_0" style="fill:#FBB049;" d="M174.499,59.724c0,12.68-10.279,22.958-22.958,22.958
	c-12.68,0-22.958-10.278-22.958-22.958s22.958-45.916,22.958-45.916S174.499,47.044,174.499,59.724z"/>
<path style="fill:#FBB049;" d="M151.54,82.681c-12.68,0-22.958-10.278-22.958-22.958s22.958-45.916,22.958-45.916"/>
<path id="SVGCleanerId_1" style="fill:#FBB049;" d="M191.718,311.116c0,22.189-17.987,40.177-40.177,40.177
	s-40.177-17.987-40.177-40.177V270.94l40.177,34.438l40.177-34.438L191.718,311.116L191.718,311.116z"/>
<path style="fill:#FBB049;" d="M151.54,351.293c-22.189,0-40.177-17.987-40.177-40.177V270.94l40.177,34.438"/>
<path id="SVGCleanerId_2" style="fill:#FBB049;" d="M191.718,220.431c0,22.189-17.987,40.177-40.177,40.177
	s-40.177-17.987-40.177-40.177v-40.177l40.177,34.438l40.177-34.438L191.718,220.431L191.718,220.431z"/>
<path style="fill:#FBB049;" d="M151.54,260.608c-22.189,0-40.177-17.987-40.177-40.177v-40.177l40.177,34.438"/>
<path id="SVGCleanerId_3" style="fill:#FBB049;" d="M191.718,128.598c0,22.189-17.987,40.177-40.177,40.177
	s-40.177-17.987-40.177-40.177V88.422l40.177,34.437l40.177-34.437L191.718,128.598L191.718,128.598z"/>
<path style="fill:#FBB049;" d="M151.54,168.775c-22.189,0-40.177-17.987-40.177-40.177V88.422l40.177,34.437"/>
<g>
	<path id="SVGCleanerId_1_1_" style="fill:#FBB049;" d="M191.718,311.116c0,22.189-17.987,40.177-40.177,40.177
		s-40.177-17.987-40.177-40.177V270.94l40.177,34.438l40.177-34.438L191.718,311.116L191.718,311.116z"/>
</g>
<g>
	<path id="SVGCleanerId_2_1_" style="fill:#FBB049;" d="M191.718,220.431c0,22.189-17.987,40.177-40.177,40.177
		s-40.177-17.987-40.177-40.177v-40.177l40.177,34.438l40.177-34.438L191.718,220.431L191.718,220.431z"/>
</g>
<g>
	<path id="SVGCleanerId_3_1_" style="fill:#FBB049;" d="M191.718,128.598c0,22.189-17.987,40.177-40.177,40.177
		s-40.177-17.987-40.177-40.177V88.422l40.177,34.437l40.177-34.437L191.718,128.598L191.718,128.598z"/>
</g>
<g>
	<path id="SVGCleanerId_0_1_" style="fill:#FBB049;" d="M174.499,59.724c0,12.68-10.279,22.958-22.958,22.958
		c-12.68,0-22.958-10.278-22.958-22.958s22.958-45.916,22.958-45.916S174.499,47.044,174.499,59.724z"/>
</g>
<g>
	<path style="fill:#FBB049;" d="M278.959,59.724c0,12.68-10.279,22.958-22.958,22.958c-12.68,0-22.958-10.278-22.958-22.958
		s22.958-45.916,22.958-45.916S278.959,47.044,278.959,59.724z"/>
	<path style="fill:#FBB049;" d="M256.001,82.681c-12.68,0-22.958-10.278-22.958-22.958s22.958-45.916,22.958-45.916"/>
	<path style="fill:#FBB049;" d="M296.177,311.116c0,22.189-17.987,40.177-40.177,40.177c-22.189,0-40.177-17.987-40.177-40.177
		V270.94l40.177,34.438l40.177-34.438V311.116z"/>
	<path style="fill:#FBB049;" d="M256.001,351.293c-22.189,0-40.177-17.987-40.177-40.177V270.94l40.177,34.438"/>
	<path style="fill:#FBB049;" d="M296.177,220.431c0,22.189-17.987,40.177-40.177,40.177c-22.189,0-40.177-17.987-40.177-40.177
		v-40.177l40.177,34.438l40.177-34.438V220.431z"/>
	<path style="fill:#FBB049;" d="M256.001,260.608c-22.189,0-40.177-17.987-40.177-40.177v-40.177l40.177,34.438"/>
	<path style="fill:#FBB049;" d="M296.177,128.598c0,22.189-17.987,40.177-40.177,40.177c-22.189,0-40.177-17.987-40.177-40.177
		V88.422l40.177,34.437l40.177-34.437V128.598z"/>
	<path style="fill:#FBB049;" d="M256.001,168.775c-22.189,0-40.177-17.987-40.177-40.177V88.422l40.177,34.437"/>
</g>
<g>
	<path style="fill:#FA9C1C;" d="M296.177,311.116c0,22.189-17.987,40.177-40.177,40.177c-22.189,0-40.177-17.987-40.177-40.177
		V270.94l40.177,34.438l40.177-34.438V311.116z"/>
	<path style="fill:#FA9C1C;" d="M296.177,220.431c0,22.189-17.987,40.177-40.177,40.177c-22.189,0-40.177-17.987-40.177-40.177
		v-40.177l40.177,34.438l40.177-34.438V220.431z"/>
	<path style="fill:#FA9C1C;" d="M296.177,128.598c0,22.189-17.987,40.177-40.177,40.177c-22.189,0-40.177-17.987-40.177-40.177
		V88.422l40.177,34.437l40.177-34.437V128.598z"/>
	<path style="fill:#FA9C1C;" d="M278.959,59.724c0,12.68-10.279,22.958-22.958,22.958c-12.68,0-22.958-10.278-22.958-22.958
		s22.958-45.916,22.958-45.916S278.959,47.044,278.959,59.724z"/>
</g>
<path id="SVGCleanerId_4" style="fill:#FBB049;" d="M383.419,59.724c0,12.68-10.279,22.958-22.958,22.958
	s-22.958-10.278-22.958-22.958s22.958-45.916,22.958-45.916S383.419,47.044,383.419,59.724z"/>
<path style="fill:#FBB049;" d="M360.461,82.681c-12.68,0-22.958-10.278-22.958-22.958s22.958-45.916,22.958-45.916"/>
<path id="SVGCleanerId_5" style="fill:#FBB049;" d="M400.637,311.116c0,22.189-17.987,40.177-40.177,40.177
	s-40.177-17.987-40.177-40.177V270.94l40.177,34.438l40.177-34.438V311.116z"/>
<path style="fill:#FBB049;" d="M360.461,351.293c-22.189,0-40.177-17.987-40.177-40.177V270.94l40.177,34.438"/>
<path id="SVGCleanerId_6" style="fill:#FBB049;" d="M400.637,220.431c0,22.189-17.987,40.177-40.177,40.177
	s-40.177-17.987-40.177-40.177v-40.177l40.177,34.438l40.177-34.438V220.431z"/>
<path style="fill:#FBB049;" d="M360.461,260.608c-22.189,0-40.177-17.987-40.177-40.177v-40.177l40.177,34.438"/>
<path id="SVGCleanerId_7" style="fill:#FBB049;" d="M400.637,128.598c0,22.189-17.987,40.177-40.177,40.177
	s-40.177-17.987-40.177-40.177V88.422l40.177,34.437l40.177-34.437V128.598z"/>
<path style="fill:#FBB049;" d="M360.461,168.775c-22.189,0-40.177-17.987-40.177-40.177V88.422l40.177,34.437"/>
<g>
	<path id="SVGCleanerId_5_1_" style="fill:#FBB049;" d="M400.637,311.116c0,22.189-17.987,40.177-40.177,40.177
		s-40.177-17.987-40.177-40.177V270.94l40.177,34.438l40.177-34.438V311.116z"/>
</g>
<g>
	<path id="SVGCleanerId_6_1_" style="fill:#FBB049;" d="M400.637,220.431c0,22.189-17.987,40.177-40.177,40.177
		s-40.177-17.987-40.177-40.177v-40.177l40.177,34.438l40.177-34.438V220.431z"/>
</g>
<g>
	<path id="SVGCleanerId_7_1_" style="fill:#FBB049;" d="M400.637,128.598c0,22.189-17.987,40.177-40.177,40.177
		s-40.177-17.987-40.177-40.177V88.422l40.177,34.437l40.177-34.437V128.598z"/>
</g>
<g>
	<path id="SVGCleanerId_4_1_" style="fill:#FBB049;" d="M383.419,59.724c0,12.68-10.279,22.958-22.958,22.958
		s-22.958-10.278-22.958-22.958s22.958-45.916,22.958-45.916S383.419,47.044,383.419,59.724z"/>
</g>
<g>
	<path style="fill:#1D1D1B;" d="M151.54,90.528c16.986,0,30.805-13.819,30.805-30.804c0-4.309-1.299-12.277-12.538-31.651
		c-5.828-10.047-11.57-18.377-11.81-18.726L151.54,0l-6.457,9.347c-0.242,0.349-5.983,8.68-11.81,18.726
		c-11.239,19.374-12.538,27.342-12.538,31.651C120.735,76.709,134.554,90.528,151.54,90.528z M151.54,28.11
		c8.081,12.938,15.111,26.613,15.111,31.614c0,5.457-2.917,10.232-7.264,12.889V59.724h-15.694v12.889
		c-4.347-2.656-7.264-7.433-7.264-12.889C136.429,54.724,143.46,41.048,151.54,28.11z"/>
	<path style="fill:#1D1D1B;" d="M255.997,90.528c16.986,0,30.805-13.819,30.805-30.804c0-4.309-1.299-12.277-12.538-31.651
		c-5.828-10.047-11.57-18.377-11.81-18.726L255.997,0l-6.457,9.347c-0.241,0.349-5.983,8.68-11.81,18.726
		c-11.239,19.374-12.538,27.342-12.538,31.651C225.192,76.709,239.011,90.528,255.997,90.528z M255.997,28.11
		c8.081,12.938,15.111,26.613,15.111,31.614c0,5.457-2.917,10.232-7.264,12.889V59.724H248.15v12.889
		c-4.347-2.656-7.264-7.433-7.264-12.889C240.886,54.724,247.916,41.048,255.997,28.11z"/>
	<path style="fill:#1D1D1B;" d="M360.461,90.528c16.986,0,30.805-13.819,30.805-30.804c0-4.309-1.299-12.277-12.538-31.651
		c-5.828-10.047-11.57-18.377-11.81-18.726L360.461,0l-6.456,9.347c-0.241,0.349-5.983,8.68-11.81,18.726
		c-11.239,19.374-12.538,27.342-12.538,31.651C329.655,76.709,343.475,90.528,360.461,90.528z M360.461,28.11
		c8.081,12.938,15.111,26.613,15.111,31.614c0,5.457-2.917,10.232-7.264,12.889V59.724h-15.694v12.889
		c-4.347-2.656-7.264-7.433-7.264-12.889C345.349,54.724,352.379,41.048,360.461,28.11z"/>
	<path style="fill:#1D1D1B;" d="M103.517,163.193v57.238c0,26.481,21.544,48.024,48.024,48.024s48.024-21.544,48.024-48.024v-57.238
		l-48.024,41.164L103.517,163.193z M183.871,220.431c0,15.121-10.436,27.846-24.483,31.362V237.65h-15.694v14.143
		c-14.046-3.516-24.483-16.241-24.483-31.362v-23.116l27.224,23.335l0,0l5.107,4.378l32.33-27.711v23.115H183.871z"/>
	<path style="fill:#1D1D1B;" d="M103.517,71.36v57.237c0,26.481,21.544,48.024,48.024,48.024s48.024-21.544,48.024-48.024V71.36
		l-48.024,41.163L103.517,71.36z M183.871,128.597c0,15.121-10.436,27.846-24.483,31.362v-14.142h-15.694v14.142
		c-14.046-3.516-24.483-16.241-24.483-31.362v-23.115l32.33,27.71l32.33-27.71V128.597z"/>
	<path style="fill:#1D1D1B;" d="M207.977,163.193v57.238c0,26.481,21.544,48.024,48.024,48.024c26.48,0,48.024-21.544,48.024-48.024
		v-57.238l-48.024,41.164L207.977,163.193z M288.331,220.431c0,15.121-10.436,27.846-24.483,31.362V237.65h-15.694v14.143
		c-14.046-3.516-24.483-16.241-24.483-31.362v-23.116l27.224,23.335l0,0l5.107,4.378l32.33-27.711v23.115H288.331z"/>
	<path style="fill:#1D1D1B;" d="M256.001,112.524L207.977,71.36v57.237c0,26.481,21.544,48.024,48.024,48.024
		c26.48,0,48.024-21.544,48.024-48.024V71.36L256.001,112.524z M288.331,128.597c0,15.121-10.436,27.846-24.483,31.362v-14.142
		h-15.694v14.142c-14.046-3.516-24.483-16.241-24.483-31.362v-23.115l32.33,27.71l32.33-27.71V128.597z"/>
	<path style="fill:#1D1D1B;" d="M312.437,163.193v57.238c0,26.481,21.544,48.024,48.024,48.024
		c26.481,0,48.024-21.544,48.024-48.024v-57.238l-48.024,41.164L312.437,163.193z M392.79,220.431
		c0,15.121-10.436,27.846-24.483,31.362V237.65h-15.694v14.143c-14.046-3.516-24.483-16.241-24.483-31.362v-23.116l32.33,27.711
		l32.33-27.711V220.431z"/>
	<path style="fill:#1D1D1B;" d="M360.461,112.524L312.437,71.36v57.237c0,26.481,21.544,48.024,48.024,48.024
		c26.481,0,48.024-21.544,48.024-48.024V71.36L360.461,112.524z M392.79,128.597c0,15.121-10.436,27.846-24.483,31.362v-14.142
		h-15.694v14.142c-14.046-3.516-24.483-16.241-24.483-31.362v-23.115l32.33,27.71l32.33-27.71V128.597z"/>
	<path style="fill:#1D1D1B;" d="M509.757,415.765H408.484v-32.142h-40.177v-25.134c22.759-3.758,40.177-23.565,40.177-47.373
		v-57.238l-48.024,41.164l-48.024-41.164v57.238c0,23.808,17.417,43.615,40.177,47.373v25.134h-88.766v-25.134
		c22.759-3.758,40.177-23.565,40.177-47.373v-57.238l-48.024,41.164l-48.024-41.164v57.238c0,23.808,17.417,43.615,40.177,47.373
		v25.134h-88.766v-25.134c22.759-3.758,40.177-23.565,40.177-47.373v-57.238l-48.024,41.164l-48.024-41.164v57.238
		c0,23.808,17.417,43.615,40.177,47.373v25.134h-40.177v32.142H2.244l19.993,39.988L2.244,495.741h133.038V463.6h8.412v48.401
		h15.694V463.6h88.766v48.401h15.694V463.6h88.766v48.401h15.694V463.6h8.412v32.142h133.038l-19.993-39.989L509.757,415.765z
		 M328.131,311.115v-23.116l32.33,27.711l32.33-27.711v23.116c0,15.121-10.436,27.846-24.483,31.362v-14.142h-15.694v14.142
		C338.568,338.961,328.131,326.236,328.131,311.115z M223.671,311.115v-23.116l32.33,27.711l32.33-27.711v23.116
		c0,15.121-10.436,27.846-24.483,31.362v-14.142h-15.694v14.142C234.107,338.961,223.671,326.236,223.671,311.115z M119.211,311.115
		v-23.116l32.33,27.711l32.33-27.711v23.116c0,15.121-10.436,27.846-24.483,31.362v-14.142h-15.694v14.142
		C129.647,338.961,119.211,326.236,119.211,311.115z M119.588,480.047H27.637l12.146-24.294l-12.146-24.294h75.88V463.6h16.071
		C119.588,463.6,119.588,480.047,119.588,480.047z M119.211,447.906v-48.589H392.79v48.589H119.211z M484.366,480.047h-91.952V463.6
		h16.071v-32.141h75.88l-12.146,24.294L484.366,480.047z"/>
</g>
<g>
	<rect x="143.506" y="415.765" style="fill:#FFFFFF;" width="16.07" height="15.694"/>
	<rect x="352.424" y="415.765" style="fill:#FFFFFF;" width="16.07" height="15.694"/>
	<rect x="175.647" y="415.765" style="fill:#FFFFFF;" width="160.706" height="15.694"/>
</g>
</svg>